<?xml version="1.0" encoding="UTF-8" standalone="no"?>
<!-- Created with Inkscape (http://www.inkscape.org/) -->

<svg
   width="100.19644mm"
   height="101.28414mm"
   viewBox="0 0 100.19644 101.28414"
   version="1.1"
   id="svg1"
   sodipodi:docname="NookSiteSvg.svg"
   inkscape:version="1.3.2 (091e20e, 2023-11-25, custom)"
   xmlns:inkscape="http://www.inkscape.org/namespaces/inkscape"
   xmlns:sodipodi="http://sodipodi.sourceforge.net/DTD/sodipodi-0.dtd"
   xmlns:xlink="http://www.w3.org/1999/xlink"
   xmlns="http://www.w3.org/2000/svg"
   xmlns:svg="http://www.w3.org/2000/svg">
  <sodipodi:namedview
     id="namedview1"
     pagecolor="#ffffff"
     bordercolor="#000000"
     borderopacity="0.25"
     inkscape:showpageshadow="2"
     inkscape:pageopacity="0.0"
     inkscape:pagecheckerboard="0"
     inkscape:deskcolor="#d1d1d1"
     inkscape:document-units="mm"
     inkscape:zoom="0.61850046"
     inkscape:cx="597.41266"
     inkscape:cy="493.93658"
     inkscape:window-width="1920"
     inkscape:window-height="1009"
     inkscape:window-x="3832"
     inkscape:window-y="1067"
     inkscape:window-maximized="1"
     inkscape:current-layer="layer1" />
  <defs
     id="defs1">
    <linearGradient
       id="swatch4"
       inkscape:swatch="solid">
      <stop
         style="stop-color:#000000;stop-opacity:1;"
         offset="0"
         id="stop4" />
    </linearGradient>
    <linearGradient
       inkscape:collect="always"
       xlink:href="#swatch4"
       id="linearGradient5"
       x1="82.155075"
       y1="71.176384"
       x2="166.96104"
       y2="71.176384"
       gradientUnits="userSpaceOnUse"
       gradientTransform="translate(-66.448606,8.7701019)" />
  </defs>
  <g
     inkscape:label="Layer 1"
     inkscape:groupmode="layer"
     id="layer1"
     transform="translate(-13.528402,-17.055395)">
    <path
       id="path2"
       style="fill:#000000;fill-opacity:1;stroke:url(#linearGradient5);stroke-width:0;stroke-dasharray:none"
       d="m 63.640879,17.06183 c -0.43505,0.0356 -0.9218,0.217701 -1.440739,0.559656 L 32.61745,37.11642 c -0.937024,0.617489 -1.571781,2.019641 -1.37201,3.12384 0.5209,2.879167 1.583522,7.380466 3.422014,9.158614 L 18.290675,61.776413 c -1.427165,1.078669 -1.788896,3.167689 -0.723986,4.604887 2.678683,2.846047 3.447332,3.47255 6.608382,6.491077 l -9.087818,7.536491 c -1.742593,0.909209 -2.292898,3.314014 -0.241845,5.757274 11.655533,17.904228 42.583216,8.99671 57.774251,30.945908 1.401619,1.57401 3.594514,1.66025 5.020882,0.10801 7.500963,-8.16298 15.2396,-16.11528 22.871469,-24.156148 l 12.08918,-12.787336 c 0.95008,-1.004939 1.412,-2.899011 0.93173,-4.19561 -9.85065,-26.594463 -45.572094,-26.773907 -47.882861,-56.663208 -0.1064,-1.376288 -0.706572,-2.209049 -1.592151,-2.343009 -0.132838,-0.0201 -0.272012,-0.02479 -0.417029,-0.01292 z m -0.143661,2.484603 c 0.460982,0.0032 0.620536,0.629852 0.693498,1.02526 0.233302,2.908887 0.764316,5.805469 1.774052,8.550899 1.683344,4.825646 4.781173,9.044678 8.499223,12.511898 6.952283,6.51745 15.571446,10.838326 22.902995,16.875456 4.920724,3.981168 9.234104,8.913898 11.630294,14.829069 0.58277,1.033448 0.79353,2.334281 0.21859,3.42098 -0.78665,1.168429 -1.87504,2.116215 -2.81585,3.165181 -10.056842,10.711086 -20.340699,21.208144 -30.327342,31.985124 -0.697717,1.1047 -2.381187,1.36576 -3.319177,0.42478 -2.586838,-3.61936 -5.811132,-6.81315 -9.600448,-9.17308 -6.78003,-4.297008 -14.702355,-6.139478 -22.403283,-8.040848 -5.312632,-1.35674 -10.727033,-2.65375 -15.508098,-5.43481 -2.942767,-1.649 -5.440399,-4.02618 -7.294128,-6.835246 -0.752701,-0.899767 -1.28493,-2.306298 -0.484725,-3.344499 3.413371,-2.725578 6.763921,-5.55761 10.140466,-8.340059 -2.146919,-2.053289 -4.345884,-4.055602 -6.394958,-6.20789 -1.032866,-0.701867 -1.225618,-2.283045 -0.379305,-3.203939 4.502295,-3.507906 9.100348,-6.90178 13.648779,-10.354407 0.836003,-0.700359 1.83512,-1.247398 2.576587,-2.037085 0.3792,-0.779877 -0.656107,-1.156867 -0.910539,-1.759582 -1.173076,-1.896579 -1.673494,-4.03371 -2.133203,-6.129858 -0.323696,-0.975852 -0.458374,-2.199792 0.352433,-2.988449 8.441679,-5.651692 16.965308,-11.193529 25.446509,-16.791223 1.183961,-0.658174 2.180875,-1.655088 3.471106,-2.108398 0.07879,-0.02747 0.15067,-0.03974 0.216524,-0.03927 z M 51.520689,42.019996 c -0.25667,-0.02292 -0.524467,0.04205 -0.756027,0.210323 l -5.09943,3.705717 c -0.971769,0.70619 -0.957307,2.159759 0.02842,2.846338 l 5.067391,3.530017 c -3.415607,2.806848 -5.523212,5.793263 -6.322612,8.95966 -1.545508,6.388644 4.02824,12.992222 10.372494,13.429671 3.146957,0.21698 7.151142,-0.623445 12.012187,-2.521293 l 8.636165,12.112443 c -3.389697,2.21059 -6.67635,4.79582 -10.616406,4.3589 -1.208579,-0.06919 -1.622079,0.86055 -1.10846,1.96009 l 2.478402,5.30562 c 0.594829,1.05011 2.031745,1.60325 3.001884,0.89969 14.67423,-10.64193 7.67255,-5.86217 10.097058,-7.5706 l 3.796151,5.56865 c 0.637239,0.93474 1.95916,1.07841 2.782259,0.30231 l 3.704167,-3.49229 c 0.767709,-0.72387 0.659564,-1.97483 -0.221176,-2.55592 l -5.776391,-3.81062 C 96.791134,73.314563 87.325206,64.302466 82.69863,63.051788 80.806722,62.469508 78.640196,62.42615 76.198769,62.92208 c -2.472643,0.457329 -5.345129,1.299325 -8.617045,2.525944 l -9.411829,-11.6427 c 3.129007,-1.838279 6.170255,-4.090866 9.780282,-3.244247 1.307028,0.18876 1.957348,-0.93182 1.423169,-2.148189 l -2.071192,-4.464327 c -0.498049,-1.134159 -1.880676,-1.769353 -2.936255,-1.130164 -3.347916,2.079608 -6.785393,3.948714 -9.75496,6.584611 l -2.120284,-6.608382 c -0.14573,-0.454259 -0.542197,-0.73643 -0.969966,-0.77463 z m 2.846337,14.752588 8.288383,10.252604 c -2.903527,1.202819 -5.150035,1.740572 -6.739123,1.612822 -2.531978,-0.31436 -6.106151,-3.146612 -5.249292,-6.853329 0.399699,-1.583208 1.633174,-3.253738 3.700032,-5.012097 z m 24.439852,11.892814 c 3.921936,0.05223 8.548435,5.668034 1.877922,11.663888 l -8.982398,-9.783899 c 3.168897,-1.274139 5.537238,-1.900889 7.104476,-1.879989 z"
       inkscape:export-filename="path2.svg"
       inkscape:export-xdpi="96"
       inkscape:export-ydpi="96" />
  </g>
</svg>
