<?xml version="1.0" encoding="UTF-8" standalone="no"?>
<!-- Created with Inkscape (http://www.inkscape.org/) -->

<svg
   width="79.032417mm"
   height="101.30997mm"
   viewBox="0 0 79.032417 101.30997"
   version="1.1"
   id="svg1"
   sodipodi:docname="NookSiteSvg.svg"
   inkscape:version="1.3.2 (091e20e, 2023-11-25, custom)"
   xmlns:inkscape="http://www.inkscape.org/namespaces/inkscape"
   xmlns:sodipodi="http://sodipodi.sourceforge.net/DTD/sodipodi-0.dtd"
   xmlns="http://www.w3.org/2000/svg"
   xmlns:svg="http://www.w3.org/2000/svg">
  <sodipodi:namedview
     id="namedview1"
     pagecolor="#ffffff"
     bordercolor="#000000"
     borderopacity="0.25"
     inkscape:showpageshadow="2"
     inkscape:pageopacity="0.0"
     inkscape:pagecheckerboard="0"
     inkscape:deskcolor="#d1d1d1"
     inkscape:document-units="mm"
     inkscape:zoom="0.61850046"
     inkscape:cx="597.41266"
     inkscape:cy="493.93658"
     inkscape:window-width="1920"
     inkscape:window-height="1009"
     inkscape:window-x="3832"
     inkscape:window-y="1067"
     inkscape:window-maximized="1"
     inkscape:current-layer="layer1" />
  <defs
     id="defs1">
    <linearGradient
       id="swatch4"
       inkscape:swatch="solid">
      <stop
         style="stop-color:#000000;stop-opacity:1;"
         offset="0"
         id="stop4" />
    </linearGradient>
  </defs>
  <g
     inkscape:label="Layer 1"
     inkscape:groupmode="layer"
     id="layer1"
     transform="translate(-119.74853,-18.354753)">
    <g
       id="g31"
       transform="matrix(1.1922254,0,0,1.1312684,34.59748,-84.446368)">
      <path
         id="path48"
         style="stroke-width:0"
         d="m 77.478516,149.39844 c -2.928119,-0.0104 -5.752185,2.29662 -6.013672,5.27148 -0.06864,6.6729 -0.0096,13.34923 -0.0293,20.02344 -0.03534,2.9202 2.496925,5.444 5.35428,5.68643 4.263186,0.0941 8.532816,0.013 12.798454,0.0401 14.128942,-0.01 28.258792,0.0191 42.387162,-0.0143 2.94429,-0.0614 5.69407,-2.56585 5.72385,-5.56869 0.003,-7.06448 0.0319,-14.13147 -0.014,-21.1953 -0.17471,-2.97444 -3.02521,-5.32095 -5.94673,-5.23324 -18.08663,0.32248 -36.173372,0.6613 -54.260007,0.99007 z m 54.669924,0.5625 c 1.77645,0.16397 3.4848,1.75314 3.23162,3.63031 0.14649,6.65194 -0.0121,13.30913 0.0896,19.95937 0.15522,2.17932 -1.95856,4.13271 -4.12315,3.82452 -17.72333,0.068 -35.448156,0.0202 -53.170676,0.0481 -1.9378,0.25219 -4.282487,-1.05732 -4.388751,-3.15679 -0.143528,-6.676 -0.04274,-13.36078 -0.071,-20.03331 0.240102,-2.00191 2.253939,-3.51741 4.244314,-3.27823 18.02117,-0.35561 36.044483,-0.69332 54.065433,-1.00141 l 0.0998,0.006 z" />
      <path
         id="path42"
         style="stroke-width:0"
         d="m 75.582031,90.90625 c -2.321278,0.147584 -4.339669,2.289035 -4.146484,4.647656 0.05405,1.772396 -0.112087,3.560465 0.08984,5.323044 0.424094,2.36057 2.572023,4.05428 4.853706,4.47097 6.291626,1.63643 12.567607,3.34146 18.86895,4.93528 2.132889,0.35025 4.315186,-1.55684 4.088179,-3.74484 -0.12721,-3.92295 -0.183357,-7.850809 -0.353804,-11.770782 -0.28521,-2.34282 -2.615548,-4.058154 -4.925,-3.882812 -6.158224,0.01453 -12.318104,-0.02894 -18.475391,0.02148 z m 18.603516,1.501953 c 1.244786,-0.05488 2.665256,0.913553 2.504783,2.280401 0.245167,3.813173 0.23953,7.653156 0.389748,11.459836 -0.137191,0.80627 -1.035791,1.42362 -1.811669,1.01312 -6.341853,-1.53856 -12.615813,-3.28751 -18.934425,-4.91351 -1.241606,-0.37754 -2.43236,-1.31981 -2.544182,-2.698622 -0.238733,-1.655008 0.06292,-3.335136 -0.106208,-4.992787 0.09856,-1.226883 1.256141,-2.293672 2.514358,-2.079863 5.995001,-0.110049 11.993462,-0.0046 17.987595,-0.06857 z" />
      <path
         id="path46"
         style="stroke-width:0"
         d="m 75.65625,107.99805 c -2.306254,-0.0851 -4.424522,2.02338 -4.220703,4.35078 0.01475,9.99191 -0.02944,19.98544 0.022,29.97635 0.189871,2.66134 2.823881,4.68124 5.427967,4.47977 18.636424,-0.34949 37.274516,-0.66082 55.909896,-1.03413 2.63306,-0.11679 5.01629,-2.45653 4.91162,-5.1423 -0.0171,-4.25024 0.0342,-8.5027 -0.0254,-12.75157 -0.23817,-2.81673 -2.65867,-5.05122 -5.36027,-5.56362 -18.62786,-4.73891 -37.248757,-9.50919 -55.880965,-14.2285 -0.256951,-0.0648 -0.521021,-0.0749 -0.784155,-0.0868 z m 0.166016,1.5625 c 18.500527,4.66552 36.982164,9.40904 55.475504,14.10092 1.82032,0.27078 3.81211,1.50315 4.04993,3.46806 0.1887,4.3602 0.047,8.73508 0.0976,13.09117 -0.22551,1.55475 -1.75845,2.74315 -3.32521,2.52671 -18.26368,0.41289 -36.532231,0.68775 -54.79547,1.05429 -1.66681,0.30235 -3.775169,-0.93397 -3.557293,-2.80403 -0.100089,-9.70532 -0.02397,-19.41472 -0.0694,-29.11803 -0.208949,-1.21087 0.846187,-2.51925 2.124331,-2.31909 z" />
      <path
         id="path43"
         style="stroke-width:0"
         d="m 108.0957,90.912109 c -2.74991,0.194656 -5.25351,2.597331 -5.19993,5.419394 0.10793,3.793907 0.17221,7.592137 0.33861,11.383337 0.32943,3.10056 2.95387,5.6103 5.95539,6.19465 7.70238,1.87589 15.39081,3.81681 23.10187,5.65223 2.59615,0.48903 5.37281,-1.61728 5.41078,-4.30034 -0.008,-6.44741 0.0383,-12.89707 -0.0227,-19.343411 -0.25252,-2.846548 -2.95865,-5.063548 -5.76697,-5.030564 -7.92153,0.01049 -15.845,-0.0341 -23.76562,0.02215 z m 24.10352,1.525391 c 1.71208,0.158379 3.40301,1.654362 3.17854,3.479519 0.13153,6.212721 0.0238,12.437591 0.0679,18.644431 -0.22479,1.45324 -1.8947,2.49452 -3.27686,1.86368 -7.37644,-1.70957 -14.70982,-3.60752 -22.07609,-5.35289 -2.23739,-0.37876 -4.54341,-2.14891 -4.54261,-4.58638 -0.27883,-3.6621 -0.21926,-7.347704 -0.39186,-11.009122 0.17386,-1.794286 1.93423,-3.256181 3.74171,-2.996638 7.7656,-0.09724 15.53451,-0.04986 23.2993,-0.0426 z" />
    </g>
  </g>
</svg>
